# xmcd
#
# Track frame offsets: 
#        150
#        13221
#        24093
#        35567
#        49972
#        63954
#        76501
#        89551
#        100086
#        109820
#        119355
#        131287
#        140230
#        152807
#        164631
#        178192
#        189966
#        204015
#        215038
#
# Disc length: 3028 seconds
#
# Revision: 1
# Processed by: cddbd v1.5.2PL0 Copyright (c) Steve Scherf et al.
# Submitted via: ExactAudioCopy v1.3
#
DISCID=040bd213
DTITLE=Various Artist - Country Classics
DYEAR=2012
DGENRE=Country
TTITLE0=LeAnn Rimes - How Do I Live
TTITLE1=Johnny Cash - Folsom Prison Blues
TTITLE2=Kenny Rogers - Ruby, Don't Take Your Love To Town
TTITLE3=Jeannie C. Riley - Harper Valley P.T.A.
TTITLE4=Don Gibson - On Lonesome Me
TTITLE5=Charlie Rich - Behind Closed Doors
TTITLE6=Hank Williams - Hey, Good Lookin'
TTITLE7=Billie Jo Spears - Ease The Want In Me
TTITLE8=The Everly Brothers - Bird Dog
TTITLE9=Jerry Lee Lewis - Your Cheatin' Heart
TTITLE10=Tammy Wynette - Stand By Your Man
TTITLE11=Kris Kristofferson - Me and Bobby McGee
TTITLE12=The Charlie Daniels Band - The Devil Went Down To Georgia
TTITLE13=Roy Rogers - A Gay Ranchero
TTITLE14=Merle Travis - Divorce Me C.O.D.
TTITLE15=Ernest Tubb - I Love You Because
TTITLE16=The Byrds - Ballad Of Easy Rider
TTITLE17=Frankie Laine - Rawhide
TTITLE18=Red Foley - Have I Told You Lately That I Love You?
EXTD=YEAR: 2011
EXTT0=
EXTT1=
EXTT2=
EXTT3=
EXTT4=
EXTT5=
EXTT6=
EXTT7=
EXTT8=
EXTT9=
EXTT10=
EXTT11=
EXTT12=
EXTT13=
EXTT14=
EXTT15=
EXTT16=
EXTT17=
EXTT18=
PLAYORDER=
